<?xml version="1.0" encoding="UTF-8" standalone="no"?>
<!-- Created with Inkscape (http://www.inkscape.org/) -->

<svg
   width="149.48"
   height="125.99"
   version="1.1"
   viewBox="0 0 149.48 125.99"
   id="svg11"
   sodipodi:docname="TS_logo_white_symbol.svg"
   inkscape:version="1.3.2 (091e20e, 2023-11-25)"
   inkscape:export-filename="TS_logo_white_symbol.pdf"
   inkscape:export-xdpi="96"
   inkscape:export-ydpi="96"
   xmlns:inkscape="http://www.inkscape.org/namespaces/inkscape"
   xmlns:sodipodi="http://sodipodi.sourceforge.net/DTD/sodipodi-0.dtd"
   xmlns="http://www.w3.org/2000/svg"
   xmlns:svg="http://www.w3.org/2000/svg">
  <sodipodi:namedview
     id="namedview11"
     pagecolor="#df4949"
     bordercolor="#666666"
     borderopacity="1.0"
     inkscape:showpageshadow="2"
     inkscape:pageopacity="0.0"
     inkscape:pagecheckerboard="0"
     inkscape:deskcolor="#d1d1d1"
     inkscape:zoom="4.6077838"
     inkscape:cx="79.105274"
     inkscape:cy="69.339191"
     inkscape:window-width="1887"
     inkscape:window-height="1061"
     inkscape:window-x="-35"
     inkscape:window-y="117"
     inkscape:window-maximized="0"
     inkscape:current-layer="g8" />
  <defs
     id="defs2">
    <clipPath
       id="clipPath22">
      <path
         d="m0 0h113v95h-113z"
         id="path1" />
    </clipPath>
    <clipPath
       id="clipPath36">
      <path
         d="m0 0h113v95h-113z"
         id="path2" />
    </clipPath>
  </defs>
  <g
     transform="matrix(1.3333 0 0 1.3333 0 6.4832e-6)"
     id="g11">
    <g
       clip-path="url(#clipPath22)"
       id="g10">
      <g
         clip-path="url(#clipPath36)"
         id="g9">
        <g
           id="g8">
          <path
             d="m18.453 29.574h36.938c-7.836 14.996-7.848 42.145-5.5 49.629h14.636c-10.332-18.141-5.886-37.101-2.39-46.414l0.508 0.512 7e-3 -0.039 20.719 20.699c1.051-4.867 1.188-11.93-5.16-18.906-4.016-4.016-4.836-4.067-8.023-5.657h29.269c-4.242-6.003-11.269-9.57-19.699-9.57-2.078 0-4.074 0.219-5.961 0.633l19.652-19.746c-8.691-2.098-17.734 0.437-24.832 7.406l-0.519 0.527c-3.27 3.356-5.555 7.149-6.844 11.133-1.313-3.215-3.336-6.269-6.063-9.004-6.39-6.425-14.507-8.976-22.418-7.488l15.407 15.477c-2.141-0.481-4.395-0.731-6.746-0.735h-0.118c-9.785 0.016-17.937 4.317-22.863 11.543"
             id="path3"
             style="fill:#ffffff;fill-opacity:1" />
          <g
             fill="#0032ff"
             id="g7">
            <path
               d="m43.301 63.926h-12.801l-8.801 8.789h9.024l3.722-5.098h7.039z"
               id="path4"
               style="fill:#ffffff;fill-opacity:1" />
            <path
               d="m13.418 81.059h11.156l-3.98 5.367h11.594l-4.032 8.07h-28.156z"
               id="path5"
               style="fill:#ffffff;fill-opacity:1" />
            <path
               d="m66.398 67.617-1.296-3.691h16.527l6.484 6.472h-8.031l-2.078-2.781z"
               id="path6"
               style="fill:#ffffff;fill-opacity:1" />
            <path
               d="m85.309 77.352h9.718l17.086 17.144h-56.058v-8.07h36.066z"
               id="path7"
               style="fill:#fefefe;fill-opacity:1" />
          </g>
        </g>
      </g>
    </g>
  </g>
</svg>
