<?xml version="1.0" encoding="UTF-8"?>
<!-- Created with Inkscape (http://www.inkscape.org/) -->
<svg width="149.48" height="125.99" version="1.1" viewBox="0 0 149.48 125.99" xmlns="http://www.w3.org/2000/svg">
 <defs>
  <clipPath id="clipPath22">
   <path d="m0 0h113v95h-113z"/>
  </clipPath>
  <clipPath id="clipPath36">
   <path d="m0 0h113v95h-113z"/>
  </clipPath>
 </defs>
 <g transform="matrix(1.3333 0 0 1.3333 0 6.4832e-6)">
  <g clip-path="url(#clipPath22)">
   <g clip-path="url(#clipPath36)">
    <g>
     <path d="m18.453 29.574h36.938c-7.836 14.996-7.848 42.145-5.5 49.629h14.636c-10.332-18.141-5.886-37.101-2.39-46.414l0.508 0.512 7e-3 -0.039 20.719 20.699c1.051-4.867 1.188-11.93-5.16-18.906-4.016-4.016-4.836-4.067-8.023-5.657h29.269c-4.242-6.003-11.269-9.57-19.699-9.57-2.078 0-4.074 0.219-5.961 0.633l19.652-19.746c-8.691-2.098-17.734 0.437-24.832 7.406l-0.519 0.527c-3.27 3.356-5.555 7.149-6.844 11.133-1.313-3.215-3.336-6.269-6.063-9.004-6.39-6.425-14.507-8.976-22.418-7.488l15.407 15.477c-2.141-0.481-4.395-0.731-6.746-0.735h-0.118c-9.785 0.016-17.937 4.317-22.863 11.543"/>
     <g fill="#0032ff">
      <path d="m43.301 63.926h-12.801l-8.801 8.789h9.024l3.722-5.098h7.039z"/>
      <path d="m13.418 81.059h11.156l-3.98 5.367h11.594l-4.032 8.07h-28.156z"/>
      <path d="m66.398 67.617-1.296-3.691h16.527l6.484 6.472h-8.031l-2.078-2.781z"/>
      <path d="m85.309 77.352h9.718l17.086 17.144h-56.058v-8.07h36.066z"/>
     </g>
    </g>
   </g>
  </g>
 </g>
</svg>
